{
  "accessors": [
    {
      "bufferView": 2,
      "componentType": 5126,
      "count": 874,
      "max": [
        10.509015083312988,
        1.8930543661117554,
        -6.7602643966674805
      ],
      "min": [
        9.89039421081543,
        1.3830883502960205,
        -7.184050559997559
      ],
      "type": "VEC3"
    },
    {
      "bufferView": 2,
      "byteOffset": 10488,
      "componentType": 5126,
      "count": 874,
      "max": [
        0.998709499835968,
        0.9994425177574158,
        0.9995344877243042
      ],
      "min": [
        -0.9995660781860352,
        -0.9999884366989136,
        -0.9970183372497559
      ],
      "type": "VEC3"
    },
    {
      "bufferView": 1,
      "componentType": 5126,
      "count": 874,
      "max": [
        0.3594066798686981,
        0.6216148138046265
      ],
      "min": [
        0.06800608336925507,
        0.05936624854803085
      ],
      "type": "VEC2"
    },
    {
      "bufferView": 1,
      "byteOffset": 6992,
      "componentType": 5126,
      "count": 874,
      "max": [
        0.3594066798686981,
        0.6216148138046265
      ],
      "min": [
        0.06800608336925507,
        0.05936624854803085
      ],
      "type": "VEC2"
    },
    {
      "bufferView": 0,
      "componentType": 5125,
      "count": 4608,
      "type": "SCALAR"
    },
    {
      "bufferView": 2,
      "byteOffset": 20976,
      "componentType": 5126,
      "count": 5346,
      "max": [
        10.511316299438477,
        1.8290785551071167,
        -6.283447742462158
      ],
      "min": [
        9.650919914245605,
        0.7867351770401001,
        -7.675678253173828
      ],
      "type": "VEC3"
    },
    {
      "bufferView": 2,
      "byteOffset": 85128,
      "componentType": 5126,
      "count": 5346,
      "max": [
        0.9999964237213135,
        0.9999932050704956,
        0.9999133944511414
      ],
      "min": [
        -0.9999986290931702,
        -1.0,
        -0.9999132752418518
      ],
      "type": "VEC3"
    },
    {
      "bufferView": 3,
      "componentType": 5126,
      "count": 5346,
      "max": [
        1.0,
        0.9999986290931702,
        0.9999311566352844,
        1.0
      ],
      "min": [
        -0.9999667406082153,
        -0.9996622800827026,
        -0.9999312162399292,
        -1.0
      ],
      "type": "VEC4"
    },
    {
      "bufferView": 1,
      "byteOffset": 13984,
      "componentType": 5126,
      "count": 5346,
      "max": [
        0.7375664710998535,
        0.96875
      ],
      "min": [
        0.05731596052646637,
        0.20800361037254333
      ],
      "type": "VEC2"
    },
    {
      "bufferView": 1,
      "byteOffset": 56752,
      "componentType": 5126,
      "count": 5346,
      "max": [
        0.7375664710998535,
        0.96875
      ],
      "min": [
        0.05731596052646637,
        0.20800361037254333
      ],
      "type": "VEC2"
    },
    {
      "bufferView": 0,
      "byteOffset": 18432,
      "componentType": 5125,
      "count": 30144,
      "type": "SCALAR"
    },
    {
      "bufferView": 2,
      "byteOffset": 149280,
      "componentType": 5126,
      "count": 5234,
      "max": [
        10.61729907989502,
        2.279290199279785,
        -3.798431158065796
      ],
      "min": [
        9.587987899780273,
        1.191845178604126,
        -5.511969089508057
      ],
      "type": "VEC3"
    },
    {
      "bufferView": 2,
      "byteOffset": 212088,
      "componentType": 5126,
      "count": 5234,
      "max": [
        0.9999998211860657,
        0.9930137395858765,
        0.9997327923774719
      ],
      "min": [
        -0.9999997019767761,
        -0.9999077916145325,
        -0.9997323155403137
      ],
      "type": "VEC3"
    },
    {
      "bufferView": 3,
      "byteOffset": 85536,
      "componentType": 5126,
      "count": 5234,
      "max": [
        0.9999432563781738,
        0.9965483546257019,
        0.9980936646461487,
        1.0
      ],
      "min": [
        -0.9999999403953552,
        -0.9982638359069824,
        -0.9999255537986755,
        -1.0
      ],
      "type": "VEC4"
    },
    {
      "bufferView": 1,
      "byteOffset": 99520,
      "componentType": 5126,
      "count": 5234,
      "max": [
        1.0084328651428223,
        0.509765625
      ],
      "min": [
        0.2592092454433441,
        0.032232776284217834
      ],
      "type": "VEC2"
    },
    {
      "bufferView": 1,
      "byteOffset": 141392,
      "componentType": 5126,
      "count": 5234,
      "max": [
        1.0084328651428223,
        0.509765625
      ],
      "min": [
        0.2592092454433441,
        0.032232776284217834
      ],
      "type": "VEC2"
    },
    {
      "bufferView": 0,
      "byteOffset": 139008,
      "componentType": 5125,
      "count": 29424,
      "type": "SCALAR"
    },
    {
      "bufferView": 2,
      "byteOffset": 274896,
      "componentType": 5126,
      "count": 966,
      "max": [
        0.5142488479614258,
        3.0447840690612793,
        -9.180045127868652
      ],
      "min": [
        -0.29658225178718567,
        2.1228740215301514,
        -9.811746597290039
      ],
      "type": "VEC3"
    },
    {
      "bufferView": 2,
      "byteOffset": 286488,
      "componentType": 5126,
      "count": 966,
      "max": [
        0.9999399781227112,
        0.9758962988853455,
        0.9979897141456604
      ],
      "min": [
        -0.9991001486778259,
        -0.9943195581436157,
        -0.9999257326126099
      ],
      "type": "VEC3"
    },
    {
      "bufferView": 1,
      "byteOffset": 183264,
      "componentType": 5126,
      "count": 966,
      "max": [
        0.2929966449737549,
        0.6265530586242676
      ],
      "min": [
        0.06479299068450928,
        0.28700754046440125
      ],
      "type": "VEC2"
    },
    {
      "bufferView": 1,
      "byteOffset": 190992,
      "componentType": 5126,
      "count": 966,
      "max": [
        0.2929966449737549,
        0.6265530586242676
      ],
      "min": [
        0.06479299068450928,
        0.28700754046440125
      ],
      "type": "VEC2"
    },
    {
      "bufferView": 0,
      "byteOffset": 256704,
      "componentType": 5125,
      "count": 5280,
      "type": "SCALAR"
    },
    {
      "bufferView": 2,
      "byteOffset": 298080,
      "componentType": 5126,
      "count": 2310,
      "max": [
        0.6253402233123779,
        2.917928695678711,
        -8.750243186950684
      ],
      "min": [
        -0.6240543127059937,
        1.5332797765731812,
        -10.218510627746582
      ],
      "type": "VEC3"
    },
    {
      "bufferView": 2,
      "byteOffset": 325800,
      "componentType": 5126,
      "count": 2310,
      "max": [
        0.9999382495880127,
        0.9954502582550049,
        0.9998437762260437
      ],
      "min": [
        -0.9999125003814697,
        -0.9998825192451477,
        -0.9999828934669495
      ],
      "type": "VEC3"
    },
    {
      "bufferView": 3,
      "byteOffset": 169280,
      "componentType": 5126,
      "count": 2310,
      "max": [
        0.9999943971633911,
        0.9724772572517395,
        1.0,
        1.0
      ],
      "min": [
        -0.9999856948852539,
        -0.9897677302360535,
        -0.9999925494194031,
        -1.0
      ],
      "type": "VEC4"
    },
    {
      "bufferView": 1,
      "byteOffset": 198720,
      "componentType": 5126,
      "count": 2310,
      "max": [
        0.7996108531951904,
        0.30295467376708984
      ],
      "min": [
        0.09933960437774658,
        0.05142784118652344
      ],
      "type": "VEC2"
    },
    {
      "bufferView": 1,
      "byteOffset": 217200,
      "componentType": 5126,
      "count": 2310,
      "max": [
        0.7996108531951904,
        0.30295467376708984
      ],
      "min": [
        0.09933960437774658,
        0.05142784118652344
      ],
      "type": "VEC2"
    },
    {
      "bufferView": 0,
      "byteOffset": 277824,
      "componentType": 5125,
      "count": 12816,
      "type": "SCALAR"
    },
    {
      "bufferView": 2,
      "byteOffset": 353520,
      "componentType": 5126,
      "count": 12918,
      "max": [
        11.310111045837402,
        4.910664081573486,
        -22.545732498168945
      ],
      "min": [
        9.5449800491333,
        -0.0002996470429934561,
        -24.5655460357666
      ],
      "type": "VEC3"
    },
    {
      "bufferView": 2,
      "byteOffset": 508536,
      "componentType": 5126,
      "count": 12918,
      "max": [
        0.9999744296073914,
        0.9999983906745911,
        1.0
      ],
      "min": [
        -0.9999889135360718,
        -0.9999939799308777,
        -1.0
      ],
      "type": "VEC3"
    },
    {
      "bufferView": 1,
      "byteOffset": 235680,
      "componentType": 5126,
      "count": 12918,
      "max": [
        0.983161449432373,
        0.991553783416748
      ],
      "min": [
        0.016623973846435547,
        0.32988840341567993
      ],
      "type": "VEC2"
    },
    {
      "bufferView": 1,
      "byteOffset": 339024,
      "componentType": 5126,
      "count": 12918,
      "max": [
        0.983161449432373,
        0.991553783416748
      ],
      "min": [
        0.016623973846435547,
        0.32988840341567993
      ],
      "type": "VEC2"
    },
    {
      "bufferView": 0,
      "byteOffset": 329088,
      "componentType": 5125,
      "count": 71856,
      "type": "SCALAR"
    },
    {
      "bufferView": 2,
      "byteOffset": 663552,
      "componentType": 5126,
      "count": 11025,
      "max": [
        10.91346549987793,
        4.010272979736328,
        -17.861719131469727
      ],
      "min": [
        8.945869445800781,
        0.0076448507606983185,
        -19.617128372192383
      ],
      "type": "VEC3"
    },
    {
      "bufferView": 2,
      "byteOffset": 795852,
      "componentType": 5126,
      "count": 11025,
      "max": [
        0.9999445080757141,
        0.9999983310699463,
        0.9999854564666748
      ],
      "min": [
        -0.9999775290489197,
        -0.9999985098838806,
        -0.9999764561653137
      ],
      "type": "VEC3"
    },
    {
      "bufferView": 1,
      "byteOffset": 442368,
      "componentType": 5126,
      "count": 11025,
      "max": [
        0.9218896627426147,
        0.966341495513916
      ],
      "min": [
        0.024254776537418365,
        0.31369829177856445
      ],
      "type": "VEC2"
    },
    {
      "bufferView": 1,
      "byteOffset": 530568,
      "componentType": 5126,
      "count": 11025,
      "max": [
        0.9218896627426147,
        0.966341495513916
      ],
      "min": [
        0.024254776537418365,
        0.31369829177856445
      ],
      "type": "VEC2"
    },
    {
      "bufferView": 0,
      "byteOffset": 616512,
      "componentType": 5125,
      "count": 61344,
      "type": "SCALAR"
    },
    {
      "bufferView": 2,
      "byteOffset": 928152,
      "componentType": 5126,
      "count": 11356,
      "max": [
        10.712510108947754,
        3.973771810531616,
        -20.331159591674805
      ],
      "min": [
        9.394676208496094,
        0.005371641833335161,
        -21.780704498291016
      ],
      "type": "VEC3"
    },
    {
      "bufferView": 2,
      "byteOffset": 1064424,
      "componentType": 5126,
      "count": 11356,
      "max": [
        0.999945878982544,
        0.9999983906745911,
        1.0
      ],
      "min": [
        -0.9999508857727051,
        -0.9999983906745911,
        -1.0
      ],
      "type": "VEC3"
    },
    {
      "bufferView": 1,
      "byteOffset": 618768,
      "componentType": 5126,
      "count": 11356,
      "max": [
        0.9888022541999817,
        0.9901374578475952
      ],
      "min": [
        0.33337342739105225,
        0.043100133538246155
      ],
      "type": "VEC2"
    },
    {
      "bufferView": 1,
      "byteOffset": 709616,
      "componentType": 5126,
      "count": 11356,
      "max": [
        0.9888022541999817,
        0.9901374578475952
      ],
      "min": [
        0.33337342739105225,
        0.043100133538246155
      ],
      "type": "VEC2"
    },
    {
      "bufferView": 0,
      "byteOffset": 861888,
      "componentType": 5125,
      "count": 62832,
      "type": "SCALAR"
    }
  ],
  "asset": {
    "extras": {
      "author": "salmon97 (https://sketchfab.com/salmon97)",
      "license": "CC-BY-NC-4.0 (http://creativecommons.org/licenses/by-nc/4.0/)",
      "source": "https://sketchfab.com/3d-models/animal-squad-6a5b119af9804d7982e3ca029c017724",
      "title": "Animal Squad"
    },
    "generator": "Sketchfab-12.65.0",
    "version": "2.0"
  },
  "bufferViews": [
    {
      "buffer": 0,
      "byteLength": 1113216,
      "name": "floatBufferViews",
      "target": 34963
    },
    {
      "buffer": 0,
      "byteLength": 800464,
      "byteOffset": 1113216,
      "byteStride": 8,
      "name": "floatBufferViews",
      "target": 34962
    },
    {
      "buffer": 0,
      "byteLength": 1200696,
      "byteOffset": 1913680,
      "byteStride": 12,
      "name": "floatBufferViews",
      "target": 34962
    },
    {
      "buffer": 0,
      "byteLength": 206240,
      "byteOffset": 3114376,
      "byteStride": 16,
      "name": "floatBufferViews",
      "target": 34962
    }
  ],
  "buffers": [
    {
      "byteLength": 3320616,
      "uri": "scene.bin"
    }
  ],
  "images": [
    {
      "uri": "textures/Thorn_Skin_baseColor.png"
    },
    {
      "uri": "textures/Thorn_Clothing_normal.png"
    },
    {
      "uri": "textures/Thistle_Clothing_baseColor.png"
    },
    {
      "uri": "textures/Bramble_Skin_baseColor.png"
    }
  ],
  "materials": [
    {
      "alphaMode": "BLEND",
      "doubleSided": true,
      "name": "Thorn_Skin",
      "pbrMetallicRoughness": {
        "baseColorTexture": {
          "index": 0
        },
        "metallicFactor": 0.0,
        "roughnessFactor": 0.6
      }
    },
    {
      "alphaMode": "BLEND",
      "doubleSided": true,
      "name": "Thorn_Clothing",
      "normalTexture": {
        "index": 1,
        "scale": 0.6236661585365854
      },
      "pbrMetallicRoughness": {
        "baseColorTexture": {
          "index": 0
        },
        "metallicFactor": 0.0,
        "roughnessFactor": 0.6
      }
    },
    {
      "alphaMode": "BLEND",
      "doubleSided": true,
      "name": "Thistle_Clothing",
      "normalTexture": {
        "index": 1,
        "scale": 0.7639100609756098
      },
      "pbrMetallicRoughness": {
        "baseColorTexture": {
          "index": 2
        },
        "metallicFactor": 0.0,
        "roughnessFactor": 0.6
      }
    },
    {
      "alphaMode": "BLEND",
      "doubleSided": true,
      "name": "Bramble_Skin",
      "pbrMetallicRoughness": {
        "baseColorTexture": {
          "index": 3
        },
        "metallicFactor": 0.0,
        "roughnessFactor": 0.6
      }
    },
    {
      "alphaMode": "BLEND",
      "doubleSided": true,
      "name": "Bramble_Clothing",
      "normalTexture": {
        "index": 1,
        "scale": 0.6785442073170732
      },
      "pbrMetallicRoughness": {
        "baseColorTexture": {
          "index": 3
        },
        "metallicFactor": 0.0,
        "roughnessFactor": 0.6
      }
    },
    {
      "alphaMode": "BLEND",
      "doubleSided": true,
      "name": "Thistle_Skin",
      "pbrMetallicRoughness": {
        "baseColorTexture": {
          "index": 2
        },
        "metallicFactor": 0.0,
        "roughnessFactor": 0.6
      }
    }
  ],
  "meshes": [
    {
      "name": "Thorn_Sketchfab_Scarf_Thorn_Skin_0",
      "primitives": [
        {
          "attributes": {
            "NORMAL": 1,
            "POSITION": 0,
            "TEXCOORD_0": 2,
            "TEXCOORD_1": 3
          },
          "indices": 4,
          "material": 0,
          "mode": 4
        }
      ]
    },
    {
      "name": "Thorn_Sketchfab_clothing_Thorn_Clothing_0",
      "primitives": [
        {
          "attributes": {
            "NORMAL": 6,
            "POSITION": 5,
            "TANGENT": 7,
            "TEXCOORD_0": 8,
            "TEXCOORD_1": 9
          },
          "indices": 10,
          "material": 1,
          "mode": 4
        }
      ]
    },
    {
      "name": "Thisle_Sketchfab_Clothing_Thistle_Clothing_0",
      "primitives": [
        {
          "attributes": {
            "NORMAL": 12,
            "POSITION": 11,
            "TANGENT": 13,
            "TEXCOORD_0": 14,
            "TEXCOORD_1": 15
          },
          "indices": 16,
          "material": 2,
          "mode": 4
        }
      ]
    },
    {
      "name": "Bramble_Sketchfab_Scarf_Bramble_Skin_0",
      "primitives": [
        {
          "attributes": {
            "NORMAL": 18,
            "POSITION": 17,
            "TEXCOORD_0": 19,
            "TEXCOORD_1": 20
          },
          "indices": 21,
          "material": 3,
          "mode": 4
        }
      ]
    },
    {
      "name": "Bramble_Sketchfab_Clothing_Bramble_Clothing_0",
      "primitives": [
        {
          "attributes": {
            "NORMAL": 23,
            "POSITION": 22,
            "TANGENT": 24,
            "TEXCOORD_0": 25,
            "TEXCOORD_1": 26
          },
          "indices": 27,
          "material": 4,
          "mode": 4
        }
      ]
    },
    {
      "name": "Bramble_Sketchfab_Bramble_Skin_0",
      "primitives": [
        {
          "attributes": {
            "NORMAL": 29,
            "POSITION": 28,
            "TEXCOORD_0": 30,
            "TEXCOORD_1": 31
          },
          "indices": 32,
          "material": 3,
          "mode": 4
        }
      ]
    },
    {
      "name": "Thistle_Sketchfab_Thistle_Skin_0",
      "primitives": [
        {
          "attributes": {
            "NORMAL": 34,
            "POSITION": 33,
            "TEXCOORD_0": 35,
            "TEXCOORD_1": 36
          },
          "indices": 37,
          "material": 5,
          "mode": 4
        }
      ]
    },
    {
      "name": "Thorn_Sketchfab_Thorn_Skin_0",
      "primitives": [
        {
          "attributes": {
            "NORMAL": 39,
            "POSITION": 38,
            "TEXCOORD_0": 40,
            "TEXCOORD_1": 41
          },
          "indices": 42,
          "material": 0,
          "mode": 4
        }
      ]
    }
  ],
  "nodes": [
    {
      "children": [
        1
      ],
      "matrix": [
        1.0,
        0.0,
        0.0,
        0.0,
        0.0,
        2.220446049250313e-16,
        -1.0,
        0.0,
        0.0,
        1.0,
        2.220446049250313e-16,
        0.0,
        0.0,
        0.0,
        0.0,
        1.0
      ],
      "name": "Sketchfab_model"
    },
    {
      "children": [
        2
      ],
      "matrix": [
        1.0,
        0.0,
        0.0,
        0.0,
        0.0,
        0.0,
        1.0,
        0.0,
        0.0,
        -1.0,
        0.0,
        0.0,
        0.0,
        0.0,
        0.0,
        1.0
      ],
      "name": "04873462765a4d42ad9f27bf78a942b3.fbx"
    },
    {
      "children": [
        3,
        5,
        7,
        9,
        11,
        13,
        15,
        17
      ],
      "name": "RootNode"
    },
    {
      "children": [
        4
      ],
      "matrix": [
        1.0,
        0.0,
        0.0,
        0.0,
        0.0,
        1.0,
        0.0,
        0.0,
        0.0,
        0.0,
        1.0,
        0.0,
        0.0,
        0.0,
        -14.071118354797363,
        1.0
      ],
      "name": "Thorn_Sketchfab_Scarf"
    },
    {
      "mesh": 0,
      "name": "Thorn_Sketchfab_Scarf_Thorn_Skin_0"
    },
    {
      "children": [
        6
      ],
      "matrix": [
        1.0,
        0.0,
        0.0,
        0.0,
        0.0,
        1.0,
        0.0,
        0.0,
        0.0,
        0.0,
        1.0,
        0.0,
        0.0,
        0.0,
        -14.071118354797363,
        1.0
      ],
      "name": "Thorn_Sketchfab_clothing"
    },
    {
      "mesh": 1,
      "name": "Thorn_Sketchfab_clothing_Thorn_Clothing_0"
    },
    {
      "children": [
        8
      ],
      "matrix": [
        0.976693901875181,
        0.0,
        -0.2146369540406178,
        0.0,
        0.0,
        1.0,
        0.0,
        0.0,
        0.2146369540406178,
        0.0,
        0.976693901875181,
        0.0,
        1.234501600265503,
        0.0,
        -12.012405395507813,
        1.0
      ],
      "name": "Thisle_Sketchfab_Clothing"
    },
    {
      "mesh": 2,
      "name": "Thisle_Sketchfab_Clothing_Thistle_Clothing_0"
    },
    {
      "children": [
        10
      ],
      "matrix": [
        0.9676284991757241,
        0.0,
        0.2523788572423126,
        0.0,
        0.0,
        1.0,
        0.0,
        0.0,
        -0.2523788572423126,
        0.0,
        0.9676284991757241,
        0.0,
        8.054716110229492,
        0.0,
        -14.41254997253418,
        1.0
      ],
      "name": "Bramble_Sketchfab_Scarf"
    },
    {
      "mesh": 3,
      "name": "Bramble_Sketchfab_Scarf_Bramble_Skin_0"
    },
    {
      "children": [
        12
      ],
      "matrix": [
        0.9676284991757241,
        0.0,
        0.2523788572423126,
        0.0,
        0.0,
        1.0,
        0.0,
        0.0,
        -0.2523788572423126,
        0.0,
        0.9676284991757241,
        0.0,
        8.05407428741455,
        0.0,
        -14.37792682647705,
        1.0
      ],
      "name": "Bramble_Sketchfab_Clothing"
    },
    {
      "mesh": 4,
      "name": "Bramble_Sketchfab_Clothing_Bramble_Clothing_0"
    },
    {
      "children": [
        14
      ],
      "matrix": [
        0.9676284991757241,
        0.0,
        0.2523788572423126,
        0.0,
        0.0,
        1.0,
        0.0,
        0.0,
        -0.2523788572423126,
        0.0,
        0.9676284991757241,
        0.0,
        -5.6060791015625,
        0.0,
        -3.4044406414031982,
        1.0
      ],
      "name": "Bramble_Sketchfab"
    },
    {
      "mesh": 5,
      "name": "Bramble_Sketchfab_Bramble_Skin_0"
    },
    {
      "children": [
        16
      ],
      "matrix": [
        0.976693901875181,
        0.0,
        -0.2146369540406178,
        0.0,
        0.0,
        1.0,
        0.0,
        0.0,
        0.2146369540406178,
        0.0,
        0.976693901875181,
        0.0,
        4.255478382110596,
        0.0,
        1.7114861011505127,
        1.0
      ],
      "name": "Thistle_Sketchfab"
    },
    {
      "mesh": 6,
      "name": "Thistle_Sketchfab_Thistle_Skin_0"
    },
    {
      "children": [
        18
      ],
      "name": "Thorn_Sketchfab"
    },
    {
      "mesh": 7,
      "name": "Thorn_Sketchfab_Thorn_Skin_0"
    }
  ],
  "samplers": [
    {
      "magFilter": 9729,
      "minFilter": 9987,
      "wrapS": 10497,
      "wrapT": 10497
    }
  ],
  "scene": 0,
  "scenes": [
    {
      "name": "Sketchfab_Scene",
      "nodes": [
        0
      ]
    }
  ],
  "textures": [
    {
      "sampler": 0,
      "source": 0
    },
    {
      "sampler": 0,
      "source": 1
    },
    {
      "sampler": 0,
      "source": 2
    },
    {
      "sampler": 0,
      "source": 3
    }
  ]
}
